<svg xmlns="http://www.w3.org/2000/svg" viewBox="0 0 60 60" width="60" height="60">
    <path fill="#FF2D20" d="M30 0C13.431 0 0 13.431 0 30s13.431 30 30 30 30-13.431 30-30S46.569 0 30 0zm0 55C16.215 55 5 43.785 5 30S16.215 5 30 5s25 11.215 25 25-11.215 25-25 25z"/>
    <path fill="#FF2D20" d="M30 10c-11.046 0-20 8.954-20 20s8.954 20 20 20 20-8.954 20-20-8.954-20-20-20zm0 35c-8.284 0-15-6.716-15-15S21.716 15 30 15s15 6.716 15 15-6.716 15-15 15z"/>
    <text x="30" y="38" font-family="Arial, sans-serif" font-size="28" font-weight="bold" fill="#FF2D20" text-anchor="middle">G</text>
</svg>

